<svg width="40" height="40" viewBox="0 0 40 40" fill="none" xmlns="http://www.w3.org/2000/svg">
<path fill-rule="evenodd" clip-rule="evenodd" d="M20 40C31.0457 40 40 31.0457 40 20C40 8.9543 31.0457 0 20 0C8.9543 0 0 8.9543 0 20C0 31.0457 8.9543 40 20 40Z" fill="#7E72F2"/>
<path fill-rule="evenodd" clip-rule="evenodd" d="M20 22C21.1046 22 22 21.1046 22 20C22 18.8954 21.1046 18 20 18C18.8954 18 18 18.8954 18 20C18 21.1046 18.8954 22 20 22Z" stroke="white" stroke-width="2" stroke-linecap="round" stroke-linejoin="round"/>
<path fill-rule="evenodd" clip-rule="evenodd" d="M26.0545 22.4545C25.8317 22.9594 25.9386 23.5491 26.3245 23.9436L26.3736 23.9927C26.6809 24.2997 26.8536 24.7161 26.8536 25.1505C26.8536 25.5848 26.6809 26.0013 26.3736 26.3082C26.0667 26.6155 25.6502 26.7881 25.2159 26.7881C24.7816 26.7881 24.3651 26.6155 24.0582 26.3082L24.0091 26.2591C23.6146 25.8732 23.0249 25.7663 22.52 25.9891C22.0254 26.2011 21.704 26.6865 21.7018 27.2245V27.3636C21.7018 28.2674 20.9692 29 20.0655 29C19.1617 29 18.4291 28.2674 18.4291 27.3636V27.29C18.4161 26.7358 18.0657 26.2459 17.5455 26.0545C17.0406 25.8317 16.4509 25.9386 16.0564 26.3245L16.0073 26.3736C15.7003 26.6809 15.2839 26.8536 14.8495 26.8536C14.4152 26.8536 13.9987 26.6809 13.6918 26.3736C13.3845 26.0667 13.2119 25.6502 13.2119 25.2159C13.2119 24.7816 13.3845 24.3651 13.6918 24.0582L13.7409 24.0091C14.1268 23.6146 14.2337 23.0249 14.0109 22.52C13.7989 22.0254 13.3135 21.704 12.7755 21.7018H12.6364C11.7326 21.7018 11 20.9692 11 20.0655C11 19.1617 11.7326 18.4291 12.6364 18.4291H12.71C13.2642 18.4161 13.7541 18.0657 13.9455 17.5455C14.1683 17.0406 14.0614 16.4509 13.6755 16.0564L13.6264 16.0073C13.3191 15.7003 13.1464 15.2839 13.1464 14.8495C13.1464 14.4152 13.3191 13.9987 13.6264 13.6918C13.9333 13.3845 14.3498 13.2119 14.7841 13.2119C15.2184 13.2119 15.6349 13.3845 15.9418 13.6918L15.9909 13.7409C16.3854 14.1268 16.9751 14.2337 17.48 14.0109H17.5455C18.04 13.7989 18.3615 13.3135 18.3636 12.7755V12.6364C18.3636 11.7326 19.0963 11 20 11C20.9037 11 21.6364 11.7326 21.6364 12.6364V12.71C21.6385 13.2481 21.96 13.7335 22.4545 13.9455C22.9594 14.1683 23.5491 14.0614 23.9436 13.6755L23.9927 13.6264C24.2997 13.3191 24.7161 13.1464 25.1505 13.1464C25.5848 13.1464 26.0013 13.3191 26.3082 13.6264C26.6155 13.9333 26.7881 14.3498 26.7881 14.7841C26.7881 15.2184 26.6155 15.6349 26.3082 15.9418L26.2591 15.9909C25.8732 16.3854 25.7663 16.9751 25.9891 17.48V17.5455C26.2011 18.04 26.6865 18.3615 27.2245 18.3636H27.3636C28.2674 18.3636 29 19.0963 29 20C29 20.9037 28.2674 21.6364 27.3636 21.6364H27.29C26.7519 21.6385 26.2665 21.96 26.0545 22.4545Z" stroke="white" stroke-width="2" stroke-linecap="round" stroke-linejoin="round"/>
</svg>
